HIERARCHY
ROOT hip
{
  OFFSET 0 0 0
  CHANNELS 6 Xposition Yposition Zposition Zrotation Yrotation Xrotation
  JOINT abdomen
  {
    OFFSET 0 20.6881 -0.73152
    CHANNELS 3 Zrotation Xrotation Yrotation
    JOINT chest
    {
      OFFSET 0 11.7043 -0.48768
      CHANNELS 3 Zrotation Xrotation Yrotation
      JOINT neck
      {
        OFFSET 0 22.1894 -2.19456
        CHANNELS 3 Zrotation Xrotation Yrotation
        JOINT head
        {
          OFFSET -0.24384 7.07133 1.2192
          CHANNELS 3 Zrotation Xrotation Yrotation
          JOINT leftEye
          {
            OFFSET 4.14528 8.04674 8.04672
            CHANNELS 3 Zrotation Xrotation Yrotation
            End Site
            {
              OFFSET 1 0 0
            }
          }
          JOINT rightEye
          {
            OFFSET -3.6576 8.04674 8.04672
            CHANNELS 3 Zrotation Xrotation Yrotation
            End Site
            {
              OFFSET 1 0 0
            }
          }
        }
      }
      JOINT rCollar
      {
        OFFSET -2.68224 19.2634 -4.8768
        CHANNELS 3 Zrotation Xrotation Yrotation
        JOINT rShldr
        {
          OFFSET -8.77824 -1.95073 1.46304
          CHANNELS 3 Zrotation Xrotation Yrotation
          JOINT rForeArm
          {
            OFFSET -28.1742 -1.7115 0.48768
            CHANNELS 3 Zrotation Xrotation Yrotation
            JOINT rHand
            {
              OFFSET -22.5879 0.773209 7.07136
              CHANNELS 3 Zrotation Xrotation Yrotation
              JOINT rThumb1
              {
                OFFSET -1.2192 -0.487915 3.41376
                CHANNELS 3 Zrotation Xrotation Yrotation
                JOINT rThumb2
                {
                  OFFSET -3.37035 -0.52449 3.41376
                  CHANNELS 3 Zrotation Xrotation Yrotation
                  End Site
                  {
                    OFFSET -1.78271 -1.18214 1.43049
                  }
                }
              }
              JOINT rIndex1
              {
                OFFSET -7.75947 0.938293 5.60832
                CHANNELS 3 Zrotation Xrotation Yrotation
                JOINT rIndex2
                {
                  OFFSET -2.54057 -0.884171 1.56538
                  CHANNELS 3 Zrotation Xrotation Yrotation
                  End Site
                  {
                    OFFSET -1.62519 -0.234802 1.16502
                  }
                }
              }
              JOINT rMid1
              {
                OFFSET -8.24714 1.18213 3.41376
                CHANNELS 3 Zrotation Xrotation Yrotation
                JOINT rMid2
                {
                  OFFSET -3.10165 -0.590103 1.0647
                  CHANNELS 3 Zrotation Xrotation Yrotation
                  End Site
                  {
                    OFFSET -2.48547 -0.328903 0.83742
                  }
                }
              }
              JOINT rRing1
              {
                OFFSET -8.82822 0.546677 1.51678
                CHANNELS 3 Zrotation Xrotation Yrotation
                JOINT rRing2
                {
                  OFFSET -2.60934 -0.819778 -0.0198488
                  CHANNELS 3 Zrotation Xrotation Yrotation
                  End Site
                  {
                    OFFSET -2.33842 -0.294052 0.168128
                  }
                }
              }
              JOINT rPinky1
              {
                OFFSET -8.27202 -0.0477905 -0.4584
                CHANNELS 3 Zrotation Xrotation Yrotation
                JOINT rPinky2
                {
                  OFFSET -1.82734 -0.647385 -0.700984
                  CHANNELS 3 Zrotation Xrotation Yrotation
                  End Site
                  {
                    OFFSET -1.69225 -0.51767 -0.607171
                  }
                }
              }
            }
          }
        }
      }
      JOINT lCollar
      {
        OFFSET 2.68224 19.2634 -4.8768
        CHANNELS 3 Zrotation Xrotation Yrotation
        JOINT lShldr
        {
          OFFSET 8.77824 -1.95073 1.46304
          CHANNELS 3 Zrotation Xrotation Yrotation
          JOINT lForeArm
          {
            OFFSET 28.1742 -1.7115 0.48768
            CHANNELS 3 Zrotation Xrotation Yrotation
            JOINT lHand
            {
              OFFSET 22.5879 0.773209 7.07136
              CHANNELS 3 Zrotation Xrotation Yrotation
              JOINT lThumb1
              {
                OFFSET 1.2192 -0.487915 3.41376
                CHANNELS 3 Zrotation Xrotation Yrotation
                JOINT lThumb2
                {
                  OFFSET 3.37035 -0.52449 3.41376
                  CHANNELS 3 Zrotation Xrotation Yrotation
                  End Site
                  {
                    OFFSET 1.78271 -1.18214 1.43049
                  }
                }
              }
              JOINT lIndex1
              {
                OFFSET 7.75947 0.938293 5.60832
                CHANNELS 3 Zrotation Xrotation Yrotation
                JOINT lIndex2
                {
                  OFFSET 2.54057 -0.884171 1.56538
                  CHANNELS 3 Zrotation Xrotation Yrotation
                  End Site
                  {
                    OFFSET 1.62519 -0.234802 1.16502
                  }
                }
              }
              JOINT lMid1
              {
                OFFSET 8.24714 1.18213 3.41376
                CHANNELS 3 Zrotation Xrotation Yrotation
                JOINT lMid2
                {
                  OFFSET 3.10165 -0.590103 1.0647
                  CHANNELS 3 Zrotation Xrotation Yrotation
                  End Site
                  {
                    OFFSET 2.48547 -0.328903 0.83742
                  }
                }
              }
              JOINT lRing1
              {
                OFFSET 8.82822 0.546677 1.51678
                CHANNELS 3 Zrotation Xrotation Yrotation
                JOINT lRing2
                {
                  OFFSET 2.60934 -0.819778 -0.0198488
                  CHANNELS 3 Zrotation Xrotation Yrotation
                  End Site
                  {
                    OFFSET 2.33842 -0.294052 0.168128
                  }
                }
              }
              JOINT lPinky1
              {
                OFFSET 8.27202 -0.0477905 -0.4584
                CHANNELS 3 Zrotation Xrotation Yrotation
                JOINT lPinky2
                {
                  OFFSET 1.82734 -0.647385 -0.700984
                  CHANNELS 3 Zrotation Xrotation Yrotation
                  End Site
                  {
                    OFFSET 1.69225 -0.51767 -0.607171
                  }
                }
              }
            }
          }
        }
      }
    }
  }
  JOINT rButtock
  {
    OFFSET -8.77824 4.35084 1.2192
    CHANNELS 3 Zrotation Xrotation Yrotation
    JOINT rThigh
    {
      OFFSET 0 -1.70687 -2.19456
      CHANNELS 3 Zrotation Xrotation Yrotation
      JOINT rShin
      {
        OFFSET 0 -36.8199 0.73152
        CHANNELS 3 Zrotation Xrotation Yrotation
        JOINT rFoot
        {
          OFFSET 0.73152 -45.1104 -5.12064
          CHANNELS 3 Zrotation Xrotation Yrotation
          End Site
          {
            OFFSET -1.1221 -3.69964 12.103
          }
        }
      }
    }
  }
  JOINT lButtock
  {
    OFFSET 8.77824 4.35084 1.2192
    CHANNELS 3 Zrotation Xrotation Yrotation
    JOINT lThigh
    {
      OFFSET 0 -1.70687 -2.19456
      CHANNELS 3 Zrotation Xrotation Yrotation
      JOINT lShin
      {
        OFFSET 0 -36.8199 0.73152
        CHANNELS 3 Zrotation Xrotation Yrotation
        JOINT lFoot
        {
          OFFSET -0.73152 -45.1104 -5.12064
          CHANNELS 3 Zrotation Xrotation Yrotation
          End Site
          {
            OFFSET 1.1221 -3.69964 12.103
          }
        }
      }
    }
  }
}
MOTION
Frames:	5
Frame Time:	0.00833333
49.9187 85.5269 257.268 0.0 0.0 0.0 2.34101 -0.00222418 0.0637214 0.646596 0.00594984 0.111938 2.18042e-14 2.38542e-15 2.48481e-16 6.45212e-14 9.54166e-15 7.65632e-16 -0.0 0.0 0.0 -0.0 0.0 0.0 1.03848e-14 -1.18417e-16 2.48481e-16 2.27105e-13 -3.13707e-15 4.17448e-15 3.89439e-12 -1.26109e-12 3.49861e-14 4.4578e-11 6.76762e-13 6.23389e-13 1.05143e-10 -1.25814e-12 1.43125e-12 1.81559e-10 -2.17232e-12 2.46732e-12 1.05145e-10 -1.2591e-12 1.41853e-12 7.73091 5.47488 0.417314 1.05142e-10 -1.2589e-12 1.43443e-12 2.90554 0.965183 0.102902 1.05152e-10 -1.25851e-12 1.43204e-12 10.2786 0.731801 0.0259123 1.05133e-10 -1.25592e-12 1.44397e-12 2.22167 -0.733487 -0.20892 9.99131e-15 -1.26182e-16 -4.96962e-17 2.26657e-13 -3.14328e-15 2.5842e-15 3.89683e-12 1.07622e-12 1.90833e-14 4.45831e-11 -1.64484e-12 6.55194e-13 1.05167e-10 -1.22726e-12 1.43761e-12 1.81624e-10 -2.11189e-12 2.47924e-12 1.05164e-10 -1.22849e-12 1.44397e-12 -7.73091 5.47488 -0.417314 1.05168e-10 -1.22839e-12 1.43761e-12 -2.90554 0.965183 -0.102902 1.05164e-10 -1.22769e-12 1.43602e-12 -10.2786 0.731801 -0.0259123 1.05176e-10 -1.22253e-12 1.43125e-12 -2.22167 -0.733487 0.20892 -2.03217e-16 0.0 -3.88251e-19 2.21551 -8.02973 -0.231361 0.0060716 8.97368 0.152071 -0.477708 -0.951455 0.034866 2.03217e-16 0.0 3.88251e-19 1.35208 -1.92788 -0.0053583 0.00846641 -2.07867 0.0694585 0.423842 3.99897 -0.127287
49.4365 84.1699 245.563 -179.49 -11.4936 -179.873 2.38451 1.19339 1.80647 0.232998 -0.700952 0.61558 2.10501 4.09905 4.48423 -3.53629 -8.85096 8.05047 -0.0 0.0 0.0 -0.0 0.0 0.0 1.73963e-14 -4.13938e-15 -6.83617e-14 21.7562 14.1122 -0.145055 -4.98313 -2.44023 7.58259 0.0295466 3.81485 0.53186 -9.19421e-11 -1.66859e-12 -1.07944e-10 -1.60653e-10 -5.51136e-12 -1.84189e-10 -9.19392e-11 -1.66817e-12 -1.07956e-10 7.73091 5.47488 0.417314 -9.19437e-11 -1.66805e-12 -1.07943e-10 2.90554 0.965183 0.102902 -9.19348e-11 -1.66816e-12 -1.07944e-10 10.2786 0.731801 0.0259123 -9.19502e-11 -1.66702e-12 -1.07933e-10 2.22167 -0.733487 -0.20892 1.71561e-14 -4.14469e-15 -6.85896e-14 -21.5142 12.2339 -0.012928 5.65448 -2.9387 -8.39363 -0.0223036 3.31387 -0.462924 1.46114e-10 5.33113e-11 -1.5701e-11 2.52582e-10 9.20044e-11 -2.774e-11 1.4611e-10 5.33097e-11 -1.56929e-11 -7.73091 5.47488 -0.417314 1.46115e-10 5.33095e-11 -1.5701e-11 -2.90554 0.965183 -0.102902 1.4611e-10 5.331e-11 -1.57015e-11 -10.2786 0.731801 -0.0259123 1.46121e-10 5.33141e-11 -1.57072e-11 -2.22167 -0.733487 0.20892 -2.03217e-16 0.0 -3.88251e-19 3.30684 -9.85037 1.46995 0.0465636 15.8182 0.333109 -2.24706 -6.66004 -8.74259 2.03217e-16 0.0 3.88251e-19 -0.420007 -5.08105 -6.34675 -0.0194905 6.10626 -0.101047 0.803666 -2.2723 2.8677
49.3721 84.1904 245.559 -179.734 -11.5215 -180.042 2.35249 2.45363 3.65108 -0.191101 -1.44857 1.14821 3.62615 8.34583 9.30106 -4.48433 -17.6121 17.1946 -0.0 0.0 0.0 -0.0 0.0 0.0 2.56449e-14 -9.36983e-15 -1.45572e-13 44.8443 29.0291 -0.332483 -9.55572 -4.87786 15.643 -0.0169206 7.85315 1.10293 -3.15924e-10 -7.57472e-12 -2.26921e-10 -5.49501e-10 -1.87951e-11 -3.87074e-10 -3.15921e-10 -7.5728e-12 -2.26932e-10 7.73091 5.47488 0.417314 -3.15927e-10 -7.57277e-12 -2.26923e-10 2.90554 0.965183 0.102902 -3.15919e-10 -7.57343e-12 -2.26922e-10 10.2786 0.731801 0.0259123 -3.15931e-10 -7.57385e-12 -2.26912e-10 2.22167 -0.733487 -0.20892 2.55687e-14 -9.37256e-15 -1.45725e-13 -44.2519 25.1626 -0.025938 10.7075 -5.83635 -17.3389 0.0127087 6.81307 -0.957013 1.97197e-10 1.16337e-10 -3.62587e-11 3.41057e-10 2.00735e-10 -6.39826e-11 1.97193e-10 1.16335e-10 -3.62488e-11 -7.73091 5.47488 -0.417314 1.97197e-10 1.16335e-10 -3.62589e-11 -2.90554 0.965183 -0.102902 1.97191e-10 1.16335e-10 -3.62581e-11 -10.2786 0.731801 -0.0259123 1.97202e-10 1.16338e-10 -3.62649e-11 -2.22167 -0.733487 0.20892 -2.03217e-16 0.0 -3.88251e-19 4.58224 -11.7612 3.29409 0.0381057 23.0525 0.543993 -6.02881 -12.2243 -18.3336 2.03217e-16 0.0 3.88251e-19 -3.05263 -8.25932 -13.1378 0.00530055 14.7594 -0.28964 1.92375 -8.8576 6.10289
49.3742 84.1943 245.671 -179.971 -10.9947 -180.002 2.25329 3.57111 5.30113 -0.556899 -2.11403 1.62383 4.37366 11.993 13.7234 -2.79358 -24.3634 26.3645 -0.0 0.0 0.0 -0.0 0.0 0.0 3.14194e-14 -1.21813e-14 -2.05582e-13 65.547 42.3354 -0.570922 -13.0569 -6.80893 22.8976 -0.12747 11.4406 1.62433 -4.86112e-10 -2.48949e-12 -3.26695e-10 -8.45076e-10 -1.21894e-11 -5.57501e-10 -4.86108e-10 -2.48629e-12 -3.26704e-10 7.73091 5.47488 0.417314 -4.86115e-10 -2.48636e-12 -3.26699e-10 2.90554 0.965183 0.102902 -4.86108e-10 -2.48748e-12 -3.26696e-10 10.2786 0.731801 0.0259123 -4.86116e-10 -2.4892e-12 -3.26688e-10 2.22167 -0.733487 -0.20892 3.14856e-14 -1.21817e-14 -2.0567e-13 -64.5226 36.7016 -0.0472751 14.4516 -8.06081 -25.4162 0.0958034 9.939 -1.40758 2.28007e-10 1.62389e-10 -4.99781e-11 3.94498e-10 2.80237e-10 -8.81784e-11 2.28004e-10 1.62386e-10 -4.99665e-11 -7.73091 5.47488 -0.417314 2.28008e-10 1.62385e-10 -4.99783e-11 -2.90554 0.965183 -0.102902 2.28001e-10 1.62385e-10 -4.99766e-11 -10.2786 0.731801 -0.0259123 2.28011e-10 1.62387e-10 -4.99842e-11 -2.22167 -0.733487 0.20892 -2.03217e-16 0.0 -3.88251e-19 5.82197 -13.4527 4.93885 -0.0216068 29.5058 0.759581 -11.0078 -16.3841 -27.3144 2.03217e-16 0.0 3.88251e-19 -6.0458 -10.8506 -19.313 0.0795273 22.4755 -0.476435 3.57131 -14.643 9.1499
49.343 84.1869 245.593 -179.893 -11.4681 -179.952 2.14005 4.34452 6.45611 -0.803309 -2.57476 1.95604 4.56134 14.4304 16.902 -0.195806 -28.1851 33.4538 -0.0 0.0 0.0 -0.0 0.0 0.0 3.10085e-14 -8.94531e-15 -2.22589e-13 80.0751 51.6169 -0.815825 -15.1967 -7.9617 27.9943 -0.243156 13.9047 1.99386 -5.21811e-10 3.00741e-11 -3.78461e-10 -9.07468e-10 4.41397e-11 -6.46779e-10 -5.21807e-10 3.00781e-11 -3.7847e-10 7.73091 5.47488 0.417314 -5.21815e-10 3.00779e-11 -3.78467e-10 2.90554 0.965183 0.102902 -5.21808e-10 3.00765e-11 -3.78462e-10 10.2786 0.731801 0.0259123 -5.21815e-10 3.00741e-11 -3.78454e-10 2.22167 -0.733487 -0.20892 3.11634e-14 -8.94415e-15 -2.22639e-13 -78.6326 44.7664 -0.0863269 16.6692 -9.32419 -31.0986 0.184061 12.1342 -1.73158 2.08135e-10 1.66003e-10 -4.66015e-11 3.60353e-10 2.8667e-10 -8.22571e-11 2.08132e-10 1.66002e-10 -4.65888e-11 -7.73091 5.47488 -0.417314 2.08136e-10 1.65999e-10 -4.66015e-11 -2.90554 0.965183 -0.102902 2.08128e-10 1.65999e-10 -4.65999e-11 -10.2786 0.731801 -0.0259123 2.08139e-10 1.66001e-10 -4.66078e-11 -2.22167 -0.733487 0.20892 -2.03217e-16 0.0 -3.88251e-19 6.7357 -14.6286 6.08297 -0.0984193 34.0076 0.932153 -15.292 -18.6419 -33.8128 2.03217e-16 0.0 3.88251e-19 -8.47968 -12.4686 -23.6963 0.165129 27.8493 -0.624077 5.1047 -18.6008 11.4145
